<?xml version="1.0" encoding="UTF-8" standalone="no"?>
<!DOCTYPE svg PUBLIC "-//W3C//DTD SVG 1.0//EN" "http://www.w3.org/TR/2001/PR-SVG-20010719/DTD/svg10.dtd">
<svg width="32cm" height="18cm" viewBox="365 72 628 352" xmlns="http://www.w3.org/2000/svg" xmlns:xlink="http://www.w3.org/1999/xlink">
  <g>
    <rect style="fill: #ffffff" x="763.746" y="73.7062" width="110.1" height="44"/>
    <rect style="fill: none; fill-opacity:0; stroke-width: 2; stroke: #000000" x="763.746" y="73.7062" width="110.1" height="44"/>
    <text font-size="12.8" style="fill: #000000;text-anchor:middle;font-family:monospace;font-style:normal;font-weight:normal" x="818.796" y="88.9062">&lt;&lt;Interface&gt;&gt;</text>
    <text font-size="16" style="fill: #000000;text-anchor:middle;font-family:sans-serif;font-style:oblique;font-weight:normal" x="818.796" y="109.706">Controller</text>
    <rect style="fill: #ffffff" x="763.746" y="117.706" width="110.1" height="8"/>
    <rect style="fill: none; fill-opacity:0; stroke-width: 2; stroke: #000000" x="763.746" y="117.706" width="110.1" height="8"/>
    <rect style="fill: #ffffff" x="763.746" y="125.706" width="110.1" height="20"/>
    <rect style="fill: none; fill-opacity:0; stroke-width: 2; stroke: #000000" x="763.746" y="125.706" width="110.1" height="20"/>
    <text font-size="12.8" style="fill: #000000;text-anchor:start;font-family:monospace;font-style:normal;font-weight:normal" x="766.746" y="138.906">+run(): void</text>
  </g>
  <g>
    <rect style="fill: #ffffff" x="401.652" y="73.7854" width="117.8" height="44"/>
    <rect style="fill: none; fill-opacity:0; stroke-width: 2; stroke: #000000" x="401.652" y="73.7854" width="117.8" height="44"/>
    <text font-size="12.8" style="fill: #000000;text-anchor:middle;font-family:monospace;font-style:normal;font-weight:normal" x="460.552" y="88.9854">&lt;&lt;Interface&gt;&gt;</text>
    <text font-size="16" style="fill: #000000;text-anchor:middle;font-family:sans-serif;font-style:oblique;font-weight:normal" x="460.552" y="109.785">View</text>
    <rect style="fill: #ffffff" x="401.652" y="117.785" width="117.8" height="8"/>
    <rect style="fill: none; fill-opacity:0; stroke-width: 2; stroke: #000000" x="401.652" y="117.785" width="117.8" height="8"/>
    <rect style="fill: #ffffff" x="401.652" y="125.785" width="117.8" height="20"/>
    <rect style="fill: none; fill-opacity:0; stroke-width: 2; stroke: #000000" x="401.652" y="125.785" width="117.8" height="20"/>
    <text font-size="12.8" style="fill: #000000;text-anchor:start;font-family:monospace;font-style:normal;font-weight:normal" x="404.652" y="138.985">+close(): void</text>
  </g>
  <g>
    <rect style="fill: #ffffff" x="615.458" y="375.84" width="68.8" height="28"/>
    <rect style="fill: none; fill-opacity:0; stroke-width: 2; stroke: #000000" x="615.458" y="375.84" width="68.8" height="28"/>
    <text font-size="16" style="fill: #000000;text-anchor:middle;font-family:sans-serif;font-style:normal;font-weight:700" x="649.858" y="395.84">Model1</text>
    <rect style="fill: #ffffff" x="615.458" y="403.84" width="68.8" height="8"/>
    <rect style="fill: none; fill-opacity:0; stroke-width: 2; stroke: #000000" x="615.458" y="403.84" width="68.8" height="8"/>
    <rect style="fill: #ffffff" x="615.458" y="411.84" width="68.8" height="8"/>
    <rect style="fill: none; fill-opacity:0; stroke-width: 2; stroke: #000000" x="615.458" y="411.84" width="68.8" height="8"/>
  </g>
  <g>
    <rect style="fill: #ffffff" x="366.746" y="220.118" width="59.6" height="28"/>
    <rect style="fill: none; fill-opacity:0; stroke-width: 2; stroke: #000000" x="366.746" y="220.118" width="59.6" height="28"/>
    <text font-size="16" style="fill: #000000;text-anchor:middle;font-family:sans-serif;font-style:normal;font-weight:700" x="396.546" y="240.118">View1</text>
    <rect style="fill: #ffffff" x="366.746" y="248.118" width="59.6" height="8"/>
    <rect style="fill: none; fill-opacity:0; stroke-width: 2; stroke: #000000" x="366.746" y="248.118" width="59.6" height="8"/>
    <rect style="fill: #ffffff" x="366.746" y="256.118" width="59.6" height="8"/>
    <rect style="fill: none; fill-opacity:0; stroke-width: 2; stroke: #000000" x="366.746" y="256.118" width="59.6" height="8"/>
  </g>
  <g>
    <rect style="fill: #ffffff" x="492.744" y="220.118" width="59.6" height="28"/>
    <rect style="fill: none; fill-opacity:0; stroke-width: 2; stroke: #000000" x="492.744" y="220.118" width="59.6" height="28"/>
    <text font-size="16" style="fill: #000000;text-anchor:middle;font-family:sans-serif;font-style:normal;font-weight:700" x="522.544" y="240.118">View2</text>
    <rect style="fill: #ffffff" x="492.744" y="248.118" width="59.6" height="8"/>
    <rect style="fill: none; fill-opacity:0; stroke-width: 2; stroke: #000000" x="492.744" y="248.118" width="59.6" height="8"/>
    <rect style="fill: #ffffff" x="492.744" y="256.118" width="59.6" height="8"/>
    <rect style="fill: none; fill-opacity:0; stroke-width: 2; stroke: #000000" x="492.744" y="256.118" width="59.6" height="8"/>
  </g>
  <g>
    <rect style="fill: #ffffff" x="654.614" y="225.248" width="100.7" height="28"/>
    <rect style="fill: none; fill-opacity:0; stroke-width: 2; stroke: #000000" x="654.614" y="225.248" width="100.7" height="28"/>
    <text font-size="16" style="fill: #000000;text-anchor:middle;font-family:sans-serif;font-style:normal;font-weight:700" x="704.964" y="245.248">Controller1</text>
    <rect style="fill: #ffffff" x="654.614" y="253.248" width="100.7" height="8"/>
    <rect style="fill: none; fill-opacity:0; stroke-width: 2; stroke: #000000" x="654.614" y="253.248" width="100.7" height="8"/>
    <rect style="fill: #ffffff" x="654.614" y="261.248" width="100.7" height="8"/>
    <rect style="fill: none; fill-opacity:0; stroke-width: 2; stroke: #000000" x="654.614" y="261.248" width="100.7" height="8"/>
  </g>
  <g>
    <rect style="fill: #ffffff" x="891.612" y="225.338" width="100.7" height="28"/>
    <rect style="fill: none; fill-opacity:0; stroke-width: 2; stroke: #000000" x="891.612" y="225.338" width="100.7" height="28"/>
    <text font-size="16" style="fill: #000000;text-anchor:middle;font-family:sans-serif;font-style:normal;font-weight:700" x="941.962" y="245.338">Controller2</text>
    <rect style="fill: #ffffff" x="891.612" y="253.338" width="100.7" height="8"/>
    <rect style="fill: none; fill-opacity:0; stroke-width: 2; stroke: #000000" x="891.612" y="253.338" width="100.7" height="8"/>
    <rect style="fill: #ffffff" x="891.612" y="261.338" width="100.7" height="8"/>
    <rect style="fill: none; fill-opacity:0; stroke-width: 2; stroke: #000000" x="891.612" y="261.338" width="100.7" height="8"/>
  </g>
  <g>
    <rect style="fill: #ffffff" x="907.612" y="379.246" width="68.8" height="28"/>
    <rect style="fill: none; fill-opacity:0; stroke-width: 2; stroke: #000000" x="907.612" y="379.246" width="68.8" height="28"/>
    <text font-size="16" style="fill: #000000;text-anchor:middle;font-family:sans-serif;font-style:normal;font-weight:700" x="942.012" y="399.246">Model3</text>
    <rect style="fill: #ffffff" x="907.612" y="407.246" width="68.8" height="8"/>
    <rect style="fill: none; fill-opacity:0; stroke-width: 2; stroke: #000000" x="907.612" y="407.246" width="68.8" height="8"/>
    <rect style="fill: #ffffff" x="907.612" y="415.246" width="68.8" height="8"/>
    <rect style="fill: none; fill-opacity:0; stroke-width: 2; stroke: #000000" x="907.612" y="415.246" width="68.8" height="8"/>
  </g>
  <g>
    <polyline style="fill: none; fill-opacity:0; stroke-width: 2; stroke-dasharray: 8; stroke: #000000" points="460.552,164.021 460.552,190.952 396.546,190.952 396.546,220.118 "/>
    <polygon style="fill: #ffffff" points="468.552,164.021 460.552,148.021 452.552,164.021 "/>
    <polygon style="fill: none; fill-opacity:0; stroke-width: 2; stroke: #000000" points="468.552,164.021 460.552,148.021 452.552,164.021 "/>
  </g>
  <g>
    <polyline style="fill: none; fill-opacity:0; stroke-width: 2; stroke-dasharray: 8; stroke: #000000" points="460.552,164.021 460.552,190.952 522.544,190.952 522.544,220.118 "/>
    <polygon style="fill: #ffffff" points="468.552,164.021 460.552,148.021 452.552,164.021 "/>
    <polygon style="fill: none; fill-opacity:0; stroke-width: 2; stroke: #000000" points="468.552,164.021 460.552,148.021 452.552,164.021 "/>
  </g>
  <g>
    <polyline style="fill: none; fill-opacity:0; stroke-width: 2; stroke-dasharray: 8; stroke: #000000" points="704.964,269.248 704.964,318.544 649.858,318.544 649.858,369.135 "/>
    <polyline style="fill: none; fill-opacity:0; stroke-width: 2; stroke: #000000" points="644.858,356.487 649.858,372.487 654.858,356.487 "/>
  </g>
  <g>
    <polyline style="fill: none; fill-opacity:0; stroke-width: 2; stroke-dasharray: 8; stroke: #000000" points="941.962,269.338 941.962,320.292 942.012,320.292 942.012,372.541 "/>
    <polyline style="fill: none; fill-opacity:0; stroke-width: 2; stroke: #000000" points="937.012,359.893 942.012,375.893 947.012,359.893 "/>
  </g>
  <g>
    <rect style="fill: #ffffff" x="730.902" y="375.8" width="68.8" height="28"/>
    <rect style="fill: none; fill-opacity:0; stroke-width: 2; stroke: #000000" x="730.902" y="375.8" width="68.8" height="28"/>
    <text font-size="16" style="fill: #000000;text-anchor:middle;font-family:sans-serif;font-style:normal;font-weight:700" x="765.302" y="395.8">Model2</text>
    <rect style="fill: #ffffff" x="730.902" y="403.8" width="68.8" height="8"/>
    <rect style="fill: none; fill-opacity:0; stroke-width: 2; stroke: #000000" x="730.902" y="403.8" width="68.8" height="8"/>
    <rect style="fill: #ffffff" x="730.902" y="411.8" width="68.8" height="8"/>
    <rect style="fill: none; fill-opacity:0; stroke-width: 2; stroke: #000000" x="730.902" y="411.8" width="68.8" height="8"/>
  </g>
  <g>
    <polyline style="fill: none; fill-opacity:0; stroke-width: 2; stroke-dasharray: 8; stroke: #000000" points="704.964,269.248 704.964,318.524 765.302,318.524 765.302,369.095 "/>
    <polyline style="fill: none; fill-opacity:0; stroke-width: 2; stroke: #000000" points="760.302,356.447 765.302,372.447 770.302,356.447 "/>
  </g>
  <g>
    <polyline style="fill: none; fill-opacity:0; stroke-width: 2; stroke: #000000" points="544.624,95.7854 648.599,95.7854 648.599,95.7062 763.746,95.7062 "/>
    <polygon style="fill: #ffffff" points="519.452,95.7854 533.452,90.9854 547.452,95.7854 533.452,100.585 "/>
    <polygon style="fill: none; fill-opacity:0; stroke-width: 2; stroke: #000000" points="519.452,95.7854 533.452,90.9854 547.452,95.7854 533.452,100.585 "/>
    <text font-size="12.7998" style="fill: #000000;text-anchor:start;font-family:monospace;font-style:normal;font-weight:normal" x="650.599" y="91.7458"></text>
    <text font-size="12.7998" style="fill: #000000;text-anchor:start;font-family:monospace;font-style:normal;font-weight:normal" x="551.452" y="91.7854"></text>
    <text font-size="12.7998" style="fill: #000000;text-anchor:end;font-family:monospace;font-style:normal;font-weight:normal" x="759.746" y="91.7062"></text>
  </g>
  <g>
    <polyline style="fill: none; fill-opacity:0; stroke-width: 2; stroke-dasharray: 8; stroke: #000000" points="818.796,163.942 818.796,193.477 704.964,193.477 704.964,225.248 "/>
    <polygon style="fill: #ffffff" points="826.796,163.942 818.796,147.942 810.796,163.942 "/>
    <polygon style="fill: none; fill-opacity:0; stroke-width: 2; stroke: #000000" points="826.796,163.942 818.796,147.942 810.796,163.942 "/>
  </g>
  <g>
    <polyline style="fill: none; fill-opacity:0; stroke-width: 2; stroke-dasharray: 8; stroke: #000000" points="818.796,163.942 818.796,193.522 941.962,193.522 941.962,225.338 "/>
    <polygon style="fill: #ffffff" points="826.796,163.942 818.796,147.942 810.796,163.942 "/>
    <polygon style="fill: none; fill-opacity:0; stroke-width: 2; stroke: #000000" points="826.796,163.942 818.796,147.942 810.796,163.942 "/>
  </g>
</svg>
